<mxfile host="Electron" modified="2023-06-22T21:13:57.802Z" agent="Mozilla/5.0 (Windows NT 10.0; Win64; x64) AppleWebKit/537.36 (KHTML, like Gecko) draw.io/21.5.0 Chrome/112.0.5615.204 Electron/24.5.1 Safari/537.36" etag="OmeOFFlKO0Rz3v4n37jR" version="21.5.0" type="device">
  <diagram name="Strona-1" id="9YgNvdCkg19AwL0jZ1eb">
    <mxGraphModel dx="1101" dy="991" grid="1" gridSize="10" guides="1" tooltips="1" connect="1" arrows="1" fold="1" page="1" pageScale="1" pageWidth="1200" pageHeight="1920" math="0" shadow="0">
      <root>
        <mxCell id="0" />
        <mxCell id="1" parent="0" />
        <mxCell id="yBQchm2Hiw9dodm2YFzh-7" style="edgeStyle=orthogonalEdgeStyle;rounded=0;orthogonalLoop=1;jettySize=auto;html=1;endArrow=none;endFill=0;strokeWidth=2;" edge="1" parent="1" source="yBQchm2Hiw9dodm2YFzh-1">
          <mxGeometry relative="1" as="geometry">
            <mxPoint x="160" y="160" as="targetPoint" />
          </mxGeometry>
        </mxCell>
        <mxCell id="yBQchm2Hiw9dodm2YFzh-1" value="" style="image;html=1;image=img/lib/clip_art/computers/Monitor_Tower_128x128.png" vertex="1" parent="1">
          <mxGeometry x="120" y="40" width="80" height="80" as="geometry" />
        </mxCell>
        <mxCell id="yBQchm2Hiw9dodm2YFzh-2" value="" style="endArrow=none;html=1;rounded=0;strokeWidth=2;" edge="1" parent="1">
          <mxGeometry width="50" height="50" relative="1" as="geometry">
            <mxPoint x="40" y="160" as="sourcePoint" />
            <mxPoint x="600" y="160" as="targetPoint" />
          </mxGeometry>
        </mxCell>
        <mxCell id="yBQchm2Hiw9dodm2YFzh-8" style="edgeStyle=orthogonalEdgeStyle;rounded=0;orthogonalLoop=1;jettySize=auto;html=1;endArrow=none;endFill=0;strokeWidth=2;" edge="1" parent="1" source="yBQchm2Hiw9dodm2YFzh-3">
          <mxGeometry relative="1" as="geometry">
            <mxPoint x="240" y="160" as="targetPoint" />
          </mxGeometry>
        </mxCell>
        <mxCell id="yBQchm2Hiw9dodm2YFzh-3" value="" style="image;html=1;image=img/lib/clip_art/computers/Monitor_Tower_128x128.png" vertex="1" parent="1">
          <mxGeometry x="200" y="200" width="80" height="80" as="geometry" />
        </mxCell>
        <mxCell id="yBQchm2Hiw9dodm2YFzh-9" style="edgeStyle=orthogonalEdgeStyle;rounded=0;orthogonalLoop=1;jettySize=auto;html=1;endArrow=none;endFill=0;strokeWidth=2;" edge="1" parent="1" source="yBQchm2Hiw9dodm2YFzh-4">
          <mxGeometry relative="1" as="geometry">
            <mxPoint x="320" y="160" as="targetPoint" />
          </mxGeometry>
        </mxCell>
        <mxCell id="yBQchm2Hiw9dodm2YFzh-4" value="" style="image;html=1;image=img/lib/clip_art/computers/Monitor_Tower_128x128.png" vertex="1" parent="1">
          <mxGeometry x="280" y="40" width="80" height="80" as="geometry" />
        </mxCell>
        <mxCell id="yBQchm2Hiw9dodm2YFzh-10" style="edgeStyle=orthogonalEdgeStyle;rounded=0;orthogonalLoop=1;jettySize=auto;html=1;endArrow=none;endFill=0;strokeWidth=2;" edge="1" parent="1" source="yBQchm2Hiw9dodm2YFzh-5">
          <mxGeometry relative="1" as="geometry">
            <mxPoint x="400" y="160" as="targetPoint" />
          </mxGeometry>
        </mxCell>
        <mxCell id="yBQchm2Hiw9dodm2YFzh-5" value="" style="image;html=1;image=img/lib/clip_art/computers/Monitor_Tower_128x128.png" vertex="1" parent="1">
          <mxGeometry x="360" y="200" width="80" height="80" as="geometry" />
        </mxCell>
        <mxCell id="yBQchm2Hiw9dodm2YFzh-11" style="edgeStyle=orthogonalEdgeStyle;rounded=0;orthogonalLoop=1;jettySize=auto;html=1;endArrow=none;endFill=0;strokeWidth=2;" edge="1" parent="1" source="yBQchm2Hiw9dodm2YFzh-6">
          <mxGeometry relative="1" as="geometry">
            <mxPoint x="480" y="160" as="targetPoint" />
          </mxGeometry>
        </mxCell>
        <mxCell id="yBQchm2Hiw9dodm2YFzh-6" value="" style="image;html=1;image=img/lib/clip_art/computers/Monitor_Tower_128x128.png" vertex="1" parent="1">
          <mxGeometry x="440" y="40" width="80" height="80" as="geometry" />
        </mxCell>
        <mxCell id="yBQchm2Hiw9dodm2YFzh-12" value="" style="image;html=1;image=img/lib/clip_art/computers/Monitor_Tower_128x128.png" vertex="1" parent="1">
          <mxGeometry x="140" y="310" width="80" height="80" as="geometry" />
        </mxCell>
        <mxCell id="yBQchm2Hiw9dodm2YFzh-20" style="edgeStyle=orthogonalEdgeStyle;orthogonalLoop=1;jettySize=auto;html=1;entryX=0;entryY=0.5;entryDx=0;entryDy=0;exitX=0.5;exitY=0;exitDx=0;exitDy=0;curved=1;strokeWidth=2;endArrow=none;endFill=0;" edge="1" parent="1" source="yBQchm2Hiw9dodm2YFzh-13" target="yBQchm2Hiw9dodm2YFzh-12">
          <mxGeometry relative="1" as="geometry" />
        </mxCell>
        <mxCell id="yBQchm2Hiw9dodm2YFzh-13" value="" style="image;html=1;image=img/lib/clip_art/computers/Monitor_Tower_128x128.png" vertex="1" parent="1">
          <mxGeometry x="30" y="400" width="80" height="80" as="geometry" />
        </mxCell>
        <mxCell id="yBQchm2Hiw9dodm2YFzh-21" style="edgeStyle=orthogonalEdgeStyle;orthogonalLoop=1;jettySize=auto;html=1;entryX=1;entryY=0.5;entryDx=0;entryDy=0;exitX=0.5;exitY=0;exitDx=0;exitDy=0;curved=1;strokeWidth=2;endArrow=none;endFill=0;" edge="1" parent="1" source="yBQchm2Hiw9dodm2YFzh-14" target="yBQchm2Hiw9dodm2YFzh-12">
          <mxGeometry relative="1" as="geometry" />
        </mxCell>
        <mxCell id="yBQchm2Hiw9dodm2YFzh-14" value="" style="image;html=1;image=img/lib/clip_art/computers/Monitor_Tower_128x128.png" vertex="1" parent="1">
          <mxGeometry x="250" y="400" width="80" height="80" as="geometry" />
        </mxCell>
        <mxCell id="yBQchm2Hiw9dodm2YFzh-17" style="edgeStyle=orthogonalEdgeStyle;orthogonalLoop=1;jettySize=auto;html=1;entryX=0.25;entryY=1;entryDx=0;entryDy=0;curved=1;exitX=0;exitY=0.5;exitDx=0;exitDy=0;endArrow=none;endFill=0;strokeWidth=2;" edge="1" parent="1" source="yBQchm2Hiw9dodm2YFzh-15" target="yBQchm2Hiw9dodm2YFzh-13">
          <mxGeometry relative="1" as="geometry" />
        </mxCell>
        <mxCell id="yBQchm2Hiw9dodm2YFzh-18" style="edgeStyle=orthogonalEdgeStyle;orthogonalLoop=1;jettySize=auto;html=1;entryX=0.5;entryY=1;entryDx=0;entryDy=0;exitX=0.5;exitY=1;exitDx=0;exitDy=0;curved=1;endArrow=none;endFill=0;strokeWidth=2;" edge="1" parent="1" source="yBQchm2Hiw9dodm2YFzh-15" target="yBQchm2Hiw9dodm2YFzh-16">
          <mxGeometry relative="1" as="geometry" />
        </mxCell>
        <mxCell id="yBQchm2Hiw9dodm2YFzh-15" value="" style="image;html=1;image=img/lib/clip_art/computers/Monitor_Tower_128x128.png" vertex="1" parent="1">
          <mxGeometry x="80" y="510" width="80" height="80" as="geometry" />
        </mxCell>
        <mxCell id="yBQchm2Hiw9dodm2YFzh-19" style="edgeStyle=orthogonalEdgeStyle;orthogonalLoop=1;jettySize=auto;html=1;entryX=0.75;entryY=1;entryDx=0;entryDy=0;exitX=1;exitY=0.5;exitDx=0;exitDy=0;curved=1;strokeWidth=2;endArrow=none;endFill=0;" edge="1" parent="1" source="yBQchm2Hiw9dodm2YFzh-16" target="yBQchm2Hiw9dodm2YFzh-14">
          <mxGeometry relative="1" as="geometry" />
        </mxCell>
        <mxCell id="yBQchm2Hiw9dodm2YFzh-16" value="" style="image;html=1;image=img/lib/clip_art/computers/Monitor_Tower_128x128.png" vertex="1" parent="1">
          <mxGeometry x="200" y="510" width="80" height="80" as="geometry" />
        </mxCell>
        <mxCell id="yBQchm2Hiw9dodm2YFzh-35" style="edgeStyle=orthogonalEdgeStyle;rounded=0;orthogonalLoop=1;jettySize=auto;html=1;entryX=0.5;entryY=0;entryDx=0;entryDy=0;endArrow=none;endFill=0;strokeWidth=2;" edge="1" parent="1" source="yBQchm2Hiw9dodm2YFzh-22" target="yBQchm2Hiw9dodm2YFzh-32">
          <mxGeometry relative="1" as="geometry" />
        </mxCell>
        <mxCell id="yBQchm2Hiw9dodm2YFzh-22" value="" style="image;html=1;image=img/lib/clip_art/computers/Monitor_Tower_128x128.png" vertex="1" parent="1">
          <mxGeometry x="560" y="320" width="80" height="80" as="geometry" />
        </mxCell>
        <mxCell id="yBQchm2Hiw9dodm2YFzh-33" style="edgeStyle=orthogonalEdgeStyle;rounded=0;orthogonalLoop=1;jettySize=auto;html=1;entryX=0;entryY=0.5;entryDx=0;entryDy=0;endArrow=none;endFill=0;strokeWidth=2;" edge="1" parent="1" source="yBQchm2Hiw9dodm2YFzh-24" target="yBQchm2Hiw9dodm2YFzh-32">
          <mxGeometry relative="1" as="geometry" />
        </mxCell>
        <mxCell id="yBQchm2Hiw9dodm2YFzh-24" value="" style="image;html=1;image=img/lib/clip_art/computers/Monitor_Tower_128x128.png" vertex="1" parent="1">
          <mxGeometry x="440" y="440" width="80" height="80" as="geometry" />
        </mxCell>
        <mxCell id="yBQchm2Hiw9dodm2YFzh-34" style="edgeStyle=orthogonalEdgeStyle;rounded=0;orthogonalLoop=1;jettySize=auto;html=1;entryX=1;entryY=0.5;entryDx=0;entryDy=0;endArrow=none;endFill=0;strokeWidth=2;" edge="1" parent="1" source="yBQchm2Hiw9dodm2YFzh-26" target="yBQchm2Hiw9dodm2YFzh-32">
          <mxGeometry relative="1" as="geometry" />
        </mxCell>
        <mxCell id="yBQchm2Hiw9dodm2YFzh-26" value="" style="image;html=1;image=img/lib/clip_art/computers/Monitor_Tower_128x128.png" vertex="1" parent="1">
          <mxGeometry x="680" y="440" width="80" height="80" as="geometry" />
        </mxCell>
        <mxCell id="yBQchm2Hiw9dodm2YFzh-36" style="rounded=0;orthogonalLoop=1;jettySize=auto;html=1;entryX=0.25;entryY=1;entryDx=0;entryDy=0;endArrow=none;endFill=0;strokeWidth=2;" edge="1" parent="1" source="yBQchm2Hiw9dodm2YFzh-29" target="yBQchm2Hiw9dodm2YFzh-32">
          <mxGeometry relative="1" as="geometry" />
        </mxCell>
        <mxCell id="yBQchm2Hiw9dodm2YFzh-29" value="" style="image;html=1;image=img/lib/clip_art/computers/Monitor_Tower_128x128.png" vertex="1" parent="1">
          <mxGeometry x="480" y="560" width="80" height="80" as="geometry" />
        </mxCell>
        <mxCell id="yBQchm2Hiw9dodm2YFzh-37" style="rounded=0;orthogonalLoop=1;jettySize=auto;html=1;entryX=0.75;entryY=1;entryDx=0;entryDy=0;endArrow=none;endFill=0;strokeWidth=2;" edge="1" parent="1" source="yBQchm2Hiw9dodm2YFzh-31" target="yBQchm2Hiw9dodm2YFzh-32">
          <mxGeometry relative="1" as="geometry" />
        </mxCell>
        <mxCell id="yBQchm2Hiw9dodm2YFzh-31" value="" style="image;html=1;image=img/lib/clip_art/computers/Monitor_Tower_128x128.png" vertex="1" parent="1">
          <mxGeometry x="640" y="560" width="80" height="80" as="geometry" />
        </mxCell>
        <mxCell id="yBQchm2Hiw9dodm2YFzh-32" value="" style="image;html=1;image=img/lib/clip_art/computers/Server_128x128.png" vertex="1" parent="1">
          <mxGeometry x="570" y="450" width="60" height="60" as="geometry" />
        </mxCell>
        <mxCell id="yBQchm2Hiw9dodm2YFzh-39" value="" style="image;html=1;image=img/lib/clip_art/computers/Monitor_Tower_128x128.png" vertex="1" parent="1">
          <mxGeometry x="170" y="720" width="80" height="80" as="geometry" />
        </mxCell>
        <mxCell id="yBQchm2Hiw9dodm2YFzh-52" style="rounded=0;orthogonalLoop=1;jettySize=auto;html=1;entryX=0;entryY=0.75;entryDx=0;entryDy=0;endArrow=none;endFill=0;strokeWidth=2;" edge="1" parent="1" source="yBQchm2Hiw9dodm2YFzh-41" target="yBQchm2Hiw9dodm2YFzh-39">
          <mxGeometry relative="1" as="geometry" />
        </mxCell>
        <mxCell id="yBQchm2Hiw9dodm2YFzh-54" style="rounded=0;orthogonalLoop=1;jettySize=auto;html=1;entryX=0;entryY=0.5;entryDx=0;entryDy=0;strokeWidth=2;endArrow=none;endFill=0;" edge="1" parent="1" source="yBQchm2Hiw9dodm2YFzh-41" target="yBQchm2Hiw9dodm2YFzh-43">
          <mxGeometry relative="1" as="geometry" />
        </mxCell>
        <mxCell id="yBQchm2Hiw9dodm2YFzh-57" style="rounded=0;orthogonalLoop=1;jettySize=auto;html=1;exitX=1;exitY=0.75;exitDx=0;exitDy=0;entryX=0;entryY=0;entryDx=0;entryDy=0;endArrow=none;endFill=0;strokeWidth=2;" edge="1" parent="1" source="yBQchm2Hiw9dodm2YFzh-41" target="yBQchm2Hiw9dodm2YFzh-47">
          <mxGeometry relative="1" as="geometry" />
        </mxCell>
        <mxCell id="yBQchm2Hiw9dodm2YFzh-41" value="" style="image;html=1;image=img/lib/clip_art/computers/Monitor_Tower_128x128.png" vertex="1" parent="1">
          <mxGeometry x="50" y="820" width="80" height="80" as="geometry" />
        </mxCell>
        <mxCell id="yBQchm2Hiw9dodm2YFzh-53" style="rounded=0;orthogonalLoop=1;jettySize=auto;html=1;entryX=1;entryY=0.75;entryDx=0;entryDy=0;endArrow=none;endFill=0;strokeWidth=2;" edge="1" parent="1" source="yBQchm2Hiw9dodm2YFzh-43" target="yBQchm2Hiw9dodm2YFzh-39">
          <mxGeometry relative="1" as="geometry" />
        </mxCell>
        <mxCell id="yBQchm2Hiw9dodm2YFzh-58" style="rounded=0;orthogonalLoop=1;jettySize=auto;html=1;exitX=0;exitY=0.75;exitDx=0;exitDy=0;entryX=1;entryY=0;entryDx=0;entryDy=0;endArrow=none;endFill=0;strokeWidth=2;" edge="1" parent="1" source="yBQchm2Hiw9dodm2YFzh-43" target="yBQchm2Hiw9dodm2YFzh-45">
          <mxGeometry relative="1" as="geometry" />
        </mxCell>
        <mxCell id="yBQchm2Hiw9dodm2YFzh-43" value="" style="image;html=1;image=img/lib/clip_art/computers/Monitor_Tower_128x128.png" vertex="1" parent="1">
          <mxGeometry x="290" y="820" width="80" height="80" as="geometry" />
        </mxCell>
        <mxCell id="yBQchm2Hiw9dodm2YFzh-51" style="rounded=0;orthogonalLoop=1;jettySize=auto;html=1;entryX=0.5;entryY=1;entryDx=0;entryDy=0;strokeWidth=2;endArrow=none;endFill=0;" edge="1" parent="1" source="yBQchm2Hiw9dodm2YFzh-45" target="yBQchm2Hiw9dodm2YFzh-41">
          <mxGeometry relative="1" as="geometry" />
        </mxCell>
        <mxCell id="yBQchm2Hiw9dodm2YFzh-55" style="rounded=0;orthogonalLoop=1;jettySize=auto;html=1;entryX=0.25;entryY=1;entryDx=0;entryDy=0;strokeWidth=2;endArrow=none;endFill=0;" edge="1" parent="1" source="yBQchm2Hiw9dodm2YFzh-45" target="yBQchm2Hiw9dodm2YFzh-39">
          <mxGeometry relative="1" as="geometry" />
        </mxCell>
        <mxCell id="yBQchm2Hiw9dodm2YFzh-45" value="" style="image;html=1;image=img/lib/clip_art/computers/Monitor_Tower_128x128.png" vertex="1" parent="1">
          <mxGeometry x="90" y="940" width="80" height="80" as="geometry" />
        </mxCell>
        <mxCell id="yBQchm2Hiw9dodm2YFzh-49" style="rounded=0;orthogonalLoop=1;jettySize=auto;html=1;entryX=0.5;entryY=1;entryDx=0;entryDy=0;strokeWidth=2;endArrow=none;endFill=0;" edge="1" parent="1" source="yBQchm2Hiw9dodm2YFzh-47" target="yBQchm2Hiw9dodm2YFzh-43">
          <mxGeometry relative="1" as="geometry" />
        </mxCell>
        <mxCell id="yBQchm2Hiw9dodm2YFzh-50" style="rounded=0;orthogonalLoop=1;jettySize=auto;html=1;entryX=1;entryY=0.5;entryDx=0;entryDy=0;endArrow=none;endFill=0;strokeWidth=2;" edge="1" parent="1" source="yBQchm2Hiw9dodm2YFzh-47" target="yBQchm2Hiw9dodm2YFzh-45">
          <mxGeometry relative="1" as="geometry" />
        </mxCell>
        <mxCell id="yBQchm2Hiw9dodm2YFzh-56" style="rounded=0;orthogonalLoop=1;jettySize=auto;html=1;entryX=0.75;entryY=1;entryDx=0;entryDy=0;endArrow=none;endFill=0;strokeWidth=2;" edge="1" parent="1" source="yBQchm2Hiw9dodm2YFzh-47" target="yBQchm2Hiw9dodm2YFzh-39">
          <mxGeometry relative="1" as="geometry" />
        </mxCell>
        <mxCell id="yBQchm2Hiw9dodm2YFzh-47" value="" style="image;html=1;image=img/lib/clip_art/computers/Monitor_Tower_128x128.png" vertex="1" parent="1">
          <mxGeometry x="250" y="940" width="80" height="80" as="geometry" />
        </mxCell>
        <mxCell id="yBQchm2Hiw9dodm2YFzh-66" style="rounded=0;orthogonalLoop=1;jettySize=auto;html=1;exitX=0.25;exitY=1;exitDx=0;exitDy=0;entryX=0.5;entryY=0;entryDx=0;entryDy=0;endArrow=none;endFill=0;strokeWidth=2;" edge="1" parent="1" source="yBQchm2Hiw9dodm2YFzh-59" target="yBQchm2Hiw9dodm2YFzh-60">
          <mxGeometry relative="1" as="geometry" />
        </mxCell>
        <mxCell id="yBQchm2Hiw9dodm2YFzh-67" style="rounded=0;orthogonalLoop=1;jettySize=auto;html=1;exitX=0.75;exitY=1;exitDx=0;exitDy=0;entryX=0.5;entryY=0;entryDx=0;entryDy=0;endArrow=none;endFill=0;strokeWidth=2;" edge="1" parent="1" source="yBQchm2Hiw9dodm2YFzh-59" target="yBQchm2Hiw9dodm2YFzh-61">
          <mxGeometry relative="1" as="geometry" />
        </mxCell>
        <mxCell id="yBQchm2Hiw9dodm2YFzh-59" value="" style="image;html=1;image=img/lib/clip_art/computers/Monitor_Tower_128x128.png" vertex="1" parent="1">
          <mxGeometry x="610" y="680" width="80" height="80" as="geometry" />
        </mxCell>
        <mxCell id="yBQchm2Hiw9dodm2YFzh-68" style="rounded=0;orthogonalLoop=1;jettySize=auto;html=1;exitX=0.25;exitY=1;exitDx=0;exitDy=0;entryX=0.5;entryY=0;entryDx=0;entryDy=0;endArrow=none;endFill=0;strokeWidth=2;" edge="1" parent="1" source="yBQchm2Hiw9dodm2YFzh-60" target="yBQchm2Hiw9dodm2YFzh-62">
          <mxGeometry relative="1" as="geometry" />
        </mxCell>
        <mxCell id="yBQchm2Hiw9dodm2YFzh-69" style="rounded=0;orthogonalLoop=1;jettySize=auto;html=1;exitX=0.75;exitY=1;exitDx=0;exitDy=0;entryX=0.5;entryY=0;entryDx=0;entryDy=0;endArrow=none;endFill=0;strokeWidth=2;" edge="1" parent="1" source="yBQchm2Hiw9dodm2YFzh-60" target="yBQchm2Hiw9dodm2YFzh-63">
          <mxGeometry relative="1" as="geometry" />
        </mxCell>
        <mxCell id="yBQchm2Hiw9dodm2YFzh-60" value="" style="image;html=1;image=img/lib/clip_art/computers/Monitor_Tower_128x128.png" vertex="1" parent="1">
          <mxGeometry x="500" y="800" width="80" height="80" as="geometry" />
        </mxCell>
        <mxCell id="yBQchm2Hiw9dodm2YFzh-70" style="rounded=0;orthogonalLoop=1;jettySize=auto;html=1;exitX=0.25;exitY=1;exitDx=0;exitDy=0;entryX=0.5;entryY=0;entryDx=0;entryDy=0;endArrow=none;endFill=0;strokeWidth=2;" edge="1" parent="1" source="yBQchm2Hiw9dodm2YFzh-61" target="yBQchm2Hiw9dodm2YFzh-64">
          <mxGeometry relative="1" as="geometry" />
        </mxCell>
        <mxCell id="yBQchm2Hiw9dodm2YFzh-71" style="rounded=0;orthogonalLoop=1;jettySize=auto;html=1;exitX=0.75;exitY=1;exitDx=0;exitDy=0;endArrow=none;endFill=0;strokeWidth=2;" edge="1" parent="1" source="yBQchm2Hiw9dodm2YFzh-61" target="yBQchm2Hiw9dodm2YFzh-65">
          <mxGeometry relative="1" as="geometry" />
        </mxCell>
        <mxCell id="yBQchm2Hiw9dodm2YFzh-61" value="" style="image;html=1;image=img/lib/clip_art/computers/Monitor_Tower_128x128.png" vertex="1" parent="1">
          <mxGeometry x="720" y="800" width="80" height="80" as="geometry" />
        </mxCell>
        <mxCell id="yBQchm2Hiw9dodm2YFzh-62" value="" style="image;html=1;image=img/lib/clip_art/computers/Monitor_Tower_128x128.png" vertex="1" parent="1">
          <mxGeometry x="440" y="940" width="80" height="80" as="geometry" />
        </mxCell>
        <mxCell id="yBQchm2Hiw9dodm2YFzh-63" value="" style="image;html=1;image=img/lib/clip_art/computers/Monitor_Tower_128x128.png" vertex="1" parent="1">
          <mxGeometry x="560" y="940" width="80" height="80" as="geometry" />
        </mxCell>
        <mxCell id="yBQchm2Hiw9dodm2YFzh-64" value="" style="image;html=1;image=img/lib/clip_art/computers/Monitor_Tower_128x128.png" vertex="1" parent="1">
          <mxGeometry x="660" y="940" width="80" height="80" as="geometry" />
        </mxCell>
        <mxCell id="yBQchm2Hiw9dodm2YFzh-65" value="" style="image;html=1;image=img/lib/clip_art/computers/Monitor_Tower_128x128.png" vertex="1" parent="1">
          <mxGeometry x="780" y="940" width="80" height="80" as="geometry" />
        </mxCell>
      </root>
    </mxGraphModel>
  </diagram>
</mxfile>
